<?xml version="1.0" encoding="utf-8"?><svg viewBox="0 0 13 18" xmlns="http://www.w3.org/2000/svg" xmlns:xlink="http://www.w3.org/1999/xlink"><style>:root>svg{display:none}:root>svg:target{display:block}</style><svg viewBox="0 0 13 18" id="address" xmlns="http://www.w3.org/2000/svg"><path d="M12.237 6.387C12.3 2.903 9.553 0 6.181 0 2.81 0 0 2.774 0 6.258c0 1.742.75 4 2.31 6.71C3.56 15.032 5.806 18 5.994 18c.125 0 2.497-2.903 3.746-4.968 1.623-2.71 2.497-4.967 2.497-6.645z" fill-opacity=".29"/><ellipse cx="6.119" cy="6.094" rx="3.671" ry="3.695" fill="#fff"/></svg><svg viewBox="0 0 13 13" id="exit" xmlns="http://www.w3.org/2000/svg"><g clip-path="url(#bclip0_1_578)"><path d="M8.125 11.375h-6.5v-9.75h6.5v.812H9.75V0H0v13h9.75v-2.438H8.125v.813z"/><path d="M10.3 3L9.153 4.149l1.05 1.05H6v1.625h4.202l-1.05 1.051L10.3 9.024l3.011-3.012L10.302 3z"/></g><defs><clipPath id="bclip0_1_578"><path d="M0 0h13v13H0z"/></clipPath></defs></svg></svg>